<svg width="325" height="50" viewBox="0 0 325 50" fill="none" xmlns="http://www.w3.org/2000/svg">
<path d="M78.6893 40.7178H72.6738V16.2826C72.6738 14.5817 73.0057 13.1504 73.6695 11.9888C74.3471 10.8134 75.2944 9.92834 76.5113 9.33371C77.742 8.72525 79.2009 8.42102 80.888 8.42102C81.4412 8.42102 81.9736 8.46251 82.4852 8.54548C82.9969 8.61463 83.4947 8.70451 83.9787 8.81514L83.9165 13.3164C83.6538 13.2472 83.3772 13.1988 83.0868 13.1712C82.7964 13.1435 82.4576 13.1297 82.0704 13.1297C81.3513 13.1297 80.7359 13.2541 80.2243 13.503C79.7264 13.7381 79.3461 14.0908 79.0834 14.5609C78.8207 15.0311 78.6893 15.605 78.6893 16.2826V40.7178ZM83.1698 18.2739V22.5055H69.3342V18.2739H83.1698ZM85.3478 29.724V29.2884C85.3478 27.6428 85.5829 26.1286 86.053 24.7457C86.5232 23.349 87.2077 22.139 88.1066 21.1157C89.0054 20.0924 90.1117 19.2972 91.4254 18.7303C92.7392 18.1495 94.2465 17.8591 95.9474 17.8591C97.6483 17.8591 99.1626 18.1495 100.49 18.7303C101.818 19.2972 102.931 20.0924 103.83 21.1157C104.742 22.139 105.434 23.349 105.904 24.7457C106.374 26.1286 106.609 27.6428 106.609 29.2884V29.724C106.609 31.3558 106.374 32.87 105.904 34.2667C105.434 35.6496 104.742 36.8596 103.83 37.8967C102.931 38.9201 101.825 39.7152 100.511 40.2822C99.1971 40.8491 97.6898 41.1326 95.9889 41.1326C94.288 41.1326 92.7737 40.8491 91.4462 40.2822C90.1325 39.7152 89.0193 38.9201 88.1066 37.8967C87.2077 36.8596 86.5232 35.6496 86.053 34.2667C85.5829 32.87 85.3478 31.3558 85.3478 29.724ZM91.3217 29.2884V29.724C91.3217 30.6644 91.4047 31.5425 91.5706 32.3584C91.7366 33.1743 91.9993 33.8933 92.3589 34.5156C92.7323 35.1241 93.2163 35.6012 93.8109 35.9469C94.4055 36.2926 95.1315 36.4655 95.9889 36.4655C96.8186 36.4655 97.5308 36.2926 98.1254 35.9469C98.72 35.6012 99.1971 35.1241 99.5567 34.5156C99.9162 33.8933 100.179 33.1743 100.345 32.3584C100.525 31.5425 100.615 30.6644 100.615 29.724V29.2884C100.615 28.3757 100.525 27.5184 100.345 26.7163C100.179 25.9004 99.9093 25.1813 99.5359 24.559C99.1764 23.9229 98.6993 23.4251 98.1047 23.0655C97.51 22.706 96.791 22.5262 95.9474 22.5262C95.1039 22.5262 94.3848 22.706 93.7901 23.0655C93.2093 23.4251 92.7323 23.9229 92.3589 24.559C91.9993 25.1813 91.7366 25.9004 91.5706 26.7163C91.4047 27.5184 91.3217 28.3757 91.3217 29.2884ZM109.327 29.724V29.2884C109.327 27.6428 109.562 26.1286 110.032 24.7457C110.502 23.349 111.187 22.139 112.085 21.1157C112.984 20.0924 114.091 19.2972 115.404 18.7303C116.718 18.1495 118.225 17.8591 119.926 17.8591C121.627 17.8591 123.141 18.1495 124.469 18.7303C125.796 19.2972 126.91 20.0924 127.809 21.1157C128.721 22.139 129.413 23.349 129.883 24.7457C130.353 26.1286 130.588 27.6428 130.588 29.2884V29.724C130.588 31.3558 130.353 32.87 129.883 34.2667C129.413 35.6496 128.721 36.8596 127.809 37.8967C126.91 38.9201 125.803 39.7152 124.49 40.2822C123.176 40.8491 121.669 41.1326 119.968 41.1326C118.267 41.1326 116.753 40.8491 115.425 40.2822C114.111 39.7152 112.998 38.9201 112.085 37.8967C111.187 36.8596 110.502 35.6496 110.032 34.2667C109.562 32.87 109.327 31.3558 109.327 29.724ZM115.301 29.2884V29.724C115.301 30.6644 115.384 31.5425 115.549 32.3584C115.715 33.1743 115.978 33.8933 116.338 34.5156C116.711 35.1241 117.195 35.6012 117.79 35.9469C118.384 36.2926 119.11 36.4655 119.968 36.4655C120.797 36.4655 121.51 36.2926 122.104 35.9469C122.699 35.6012 123.176 35.1241 123.536 34.5156C123.895 33.8933 124.158 33.1743 124.324 32.3584C124.504 31.5425 124.593 30.6644 124.593 29.724V29.2884C124.593 28.3757 124.504 27.5184 124.324 26.7163C124.158 25.9004 123.888 25.1813 123.515 24.559C123.155 23.9229 122.678 23.4251 122.084 23.0655C121.489 22.706 120.77 22.5262 119.926 22.5262C119.083 22.5262 118.364 22.706 117.769 23.0655C117.188 23.4251 116.711 23.9229 116.338 24.559C115.978 25.1813 115.715 25.9004 115.549 26.7163C115.384 27.5184 115.301 28.3757 115.301 29.2884ZM147.514 35.8224V8.85663H153.53V40.7178H148.116L147.514 35.8224ZM133.326 29.7655V29.3299C133.326 27.6152 133.52 26.0594 133.907 24.6627C134.294 23.2522 134.861 22.0422 135.608 21.0327C136.355 20.0232 137.274 19.2419 138.367 18.6888C139.459 18.1356 140.704 17.8591 142.1 17.8591C143.414 17.8591 144.562 18.1356 145.544 18.6888C146.539 19.2419 147.383 20.0302 148.074 21.0535C148.78 22.063 149.347 23.2591 149.775 24.642C150.204 26.011 150.515 27.5114 150.709 29.1432V30.0974C150.515 31.66 150.204 33.112 149.775 34.4534C149.347 35.7948 148.78 36.9702 148.074 37.9797C147.383 38.9754 146.539 39.7498 145.544 40.3029C144.548 40.8561 143.386 41.1326 142.059 41.1326C140.662 41.1326 139.418 40.8491 138.325 40.2822C137.247 39.7152 136.334 38.9201 135.587 37.8967C134.854 36.8734 134.294 35.6703 133.907 34.2875C133.52 32.9046 133.326 31.3973 133.326 29.7655ZM139.3 29.3299V29.7655C139.3 30.692 139.369 31.5563 139.508 32.3584C139.66 33.1604 139.902 33.8726 140.234 34.4949C140.579 35.1034 141.022 35.5804 141.561 35.9262C142.114 36.258 142.785 36.424 143.573 36.424C144.597 36.424 145.44 36.1958 146.104 35.7395C146.768 35.2693 147.272 34.6263 147.618 33.8104C147.978 32.9945 148.185 32.0541 148.24 30.9893V28.272C148.199 27.4008 148.074 26.6195 147.867 25.9281C147.673 25.2228 147.383 24.6213 146.996 24.1234C146.622 23.6256 146.152 23.2384 145.585 22.9618C145.032 22.6852 144.375 22.547 143.615 22.547C142.84 22.547 142.176 22.7267 141.623 23.0863C141.07 23.432 140.621 23.9091 140.275 24.5175C139.943 25.126 139.694 25.8451 139.528 26.6748C139.376 27.4907 139.3 28.3757 139.3 29.3299ZM182.031 35.8224V8.85663H188.046V40.7178H182.632L182.031 35.8224ZM167.842 29.7655V29.3299C167.842 27.6152 168.036 26.0594 168.423 24.6627C168.81 23.2522 169.377 22.0422 170.124 21.0327C170.871 20.0232 171.79 19.2419 172.883 18.6888C173.975 18.1356 175.22 17.8591 176.617 17.8591C177.93 17.8591 179.078 18.1356 180.06 18.6888C181.056 19.2419 181.899 20.0302 182.591 21.0535C183.296 22.063 183.863 23.2591 184.292 24.642C184.72 26.011 185.031 27.5114 185.225 29.1432V30.0974C185.031 31.66 184.72 33.112 184.292 34.4534C183.863 35.7948 183.296 36.9702 182.591 37.9797C181.899 38.9754 181.056 39.7498 180.06 40.3029C179.064 40.8561 177.903 41.1326 176.575 41.1326C175.178 41.1326 173.934 40.8491 172.841 40.2822C171.763 39.7152 170.85 38.9201 170.103 37.8967C169.37 36.8734 168.81 35.6703 168.423 34.2875C168.036 32.9046 167.842 31.3973 167.842 29.7655ZM173.816 29.3299V29.7655C173.816 30.692 173.886 31.5563 174.024 32.3584C174.176 33.1604 174.418 33.8726 174.75 34.4949C175.096 35.1034 175.538 35.5804 176.077 35.9262C176.631 36.258 177.301 36.424 178.089 36.424C179.113 36.424 179.956 36.1958 180.62 35.7395C181.284 35.2693 181.789 34.6263 182.134 33.8104C182.494 32.9945 182.701 32.0541 182.757 30.9893V28.272C182.715 27.4008 182.591 26.6195 182.383 25.9281C182.19 25.2228 181.899 24.6213 181.512 24.1234C181.139 23.6256 180.668 23.2384 180.101 22.9618C179.548 22.6852 178.891 22.547 178.131 22.547C177.357 22.547 176.693 22.7267 176.14 23.0863C175.586 23.432 175.137 23.9091 174.791 24.5175C174.459 25.126 174.21 25.8451 174.045 26.6748C173.892 27.4907 173.816 28.3757 173.816 29.3299ZM203.043 41.1326C201.301 41.1326 199.738 40.8561 198.355 40.3029C196.972 39.7359 195.797 38.9546 194.829 37.959C193.875 36.9633 193.142 35.8086 192.63 34.4949C192.119 33.1673 191.863 31.7568 191.863 30.2633V29.4336C191.863 27.7327 192.105 26.177 192.589 24.7665C193.073 23.3559 193.764 22.1321 194.663 21.095C195.576 20.0578 196.682 19.2627 197.982 18.7095C199.282 18.1425 200.748 17.8591 202.379 17.8591C203.97 17.8591 205.38 18.1218 206.611 18.6473C207.842 19.1728 208.872 19.9195 209.702 20.8875C210.545 21.8555 211.181 23.0171 211.61 24.3723C212.039 25.7137 212.253 27.2072 212.253 28.8528V31.342H194.414V27.3593H206.383V26.903C206.383 26.0733 206.231 25.3334 205.926 24.6835C205.636 24.0197 205.194 23.4942 204.599 23.107C204.004 22.7198 203.244 22.5262 202.317 22.5262C201.529 22.5262 200.851 22.6991 200.284 23.0448C199.717 23.3905 199.254 23.8745 198.895 24.4968C198.549 25.1191 198.286 25.852 198.106 26.6955C197.94 27.5253 197.857 28.438 197.857 29.4336V30.2633C197.857 31.1622 197.982 31.9919 198.231 32.7525C198.494 33.5131 198.86 34.1699 199.33 34.7231C199.814 35.2762 200.395 35.7049 201.073 36.0091C201.764 36.3134 202.545 36.4655 203.417 36.4655C204.495 36.4655 205.498 36.258 206.424 35.8432C207.365 35.4145 208.174 34.7715 208.851 33.9141L211.755 37.067C211.285 37.7446 210.642 38.3946 209.826 39.0169C209.024 39.6391 208.056 40.1508 206.922 40.5518C205.788 40.939 204.495 41.1326 203.043 41.1326ZM221.961 8.85663V40.7178H215.966V8.85663H221.961ZM233.203 18.2739V40.7178H227.209V18.2739H233.203ZM226.835 12.4244C226.835 11.5532 227.14 10.8341 227.748 10.2671C228.356 9.70017 229.172 9.41669 230.196 9.41669C231.205 9.41669 232.014 9.70017 232.623 10.2671C233.245 10.8341 233.556 11.5532 233.556 12.4244C233.556 13.2956 233.245 14.0147 232.623 14.5817C232.014 15.1486 231.205 15.4321 230.196 15.4321C229.172 15.4321 228.356 15.1486 227.748 14.5817C227.14 14.0147 226.835 13.2956 226.835 12.4244ZM245.774 36.3618L250.752 18.2739H256.996L249.424 40.7178H245.649L245.774 36.3618ZM242.351 18.2739L247.35 36.3825L247.454 40.7178H243.658L236.087 18.2739H242.351ZM269.711 41.1326C267.969 41.1326 266.406 40.8561 265.023 40.3029C263.64 39.7359 262.465 38.9546 261.497 37.959C260.543 36.9633 259.81 35.8086 259.298 34.4949C258.786 33.1673 258.531 31.7568 258.531 30.2633V29.4336C258.531 27.7327 258.773 26.177 259.257 24.7665C259.741 23.3559 260.432 22.1321 261.331 21.095C262.244 20.0578 263.35 19.2627 264.65 18.7095C265.95 18.1425 267.415 17.8591 269.047 17.8591C270.637 17.8591 272.048 18.1218 273.279 18.6473C274.509 19.1728 275.54 19.9195 276.369 20.8875C277.213 21.8555 277.849 23.0171 278.278 24.3723C278.706 25.7137 278.921 27.2072 278.921 28.8528V31.342H261.082V27.3593H273.051V26.903C273.051 26.0733 272.898 25.3334 272.594 24.6835C272.304 24.0197 271.861 23.4942 271.267 23.107C270.672 22.7198 269.911 22.5262 268.985 22.5262C268.197 22.5262 267.519 22.6991 266.952 23.0448C266.385 23.3905 265.922 23.8745 265.562 24.4968C265.217 25.1191 264.954 25.852 264.774 26.6955C264.608 27.5253 264.525 28.438 264.525 29.4336V30.2633C264.525 31.1622 264.65 31.9919 264.899 32.7525C265.161 33.5131 265.528 34.1699 265.998 34.7231C266.482 35.2762 267.063 35.7049 267.74 36.0091C268.432 36.3134 269.213 36.4655 270.084 36.4655C271.163 36.4655 272.166 36.258 273.092 35.8432C274.032 35.4145 274.841 34.7715 275.519 33.9141L278.423 37.067C277.953 37.7446 277.31 38.3946 276.494 39.0169C275.692 39.6391 274.724 40.1508 273.59 40.5518C272.456 40.939 271.163 41.1326 269.711 41.1326ZM288.297 23.1693V40.7178H282.323V18.2739H287.944L288.297 23.1693ZM295.059 18.1287L294.955 23.6671C294.665 23.6256 294.312 23.591 293.897 23.5634C293.496 23.5219 293.13 23.5011 292.798 23.5011C291.954 23.5011 291.221 23.6118 290.599 23.833C289.991 24.0405 289.479 24.3516 289.064 24.7665C288.663 25.1813 288.359 25.6861 288.151 26.2807C287.958 26.8753 287.847 27.5529 287.82 28.3135L286.616 27.9401C286.616 26.4881 286.762 25.1537 287.052 23.9367C287.342 22.706 287.764 21.6343 288.317 20.7216C288.884 19.8089 289.576 19.1036 290.392 18.6058C291.208 18.108 292.141 17.8591 293.192 17.8591C293.524 17.8591 293.863 17.8867 294.208 17.942C294.554 17.9835 294.838 18.0457 295.059 18.1287ZM304.912 38.1871L310.865 18.2739H317.275L308.251 44.0989C308.058 44.6658 307.795 45.2743 307.463 45.9242C307.145 46.5742 306.709 47.1896 306.156 47.7704C305.617 48.365 304.932 48.849 304.103 49.2224C303.287 49.5957 302.284 49.7824 301.095 49.7824C300.528 49.7824 300.065 49.7479 299.705 49.6787C299.346 49.6096 298.917 49.5128 298.419 49.3883V45.0116C298.571 45.0116 298.73 45.0116 298.896 45.0116C299.062 45.0254 299.221 45.0323 299.373 45.0323C300.162 45.0323 300.805 44.9424 301.302 44.7626C301.8 44.5829 302.201 44.3063 302.506 43.9329C302.81 43.5734 303.052 43.1032 303.232 42.5224L304.912 38.1871ZM302.423 18.2739L307.297 34.5364L308.148 40.863L304.082 41.2986L296.013 18.2739H302.423Z" fill="white"/>
<path d="M25.0318 1.21649L46.4349 13.0918V36.8425L25.0318 48.7179L3.6287 36.8425V13.0918L25.0318 1.21649Z" fill="#1E6F9F"/>
</svg>
