<svg width="188" height="30" viewBox="0 0 188 30" fill="none" xmlns="http://www.w3.org/2000/svg">
<path d="M46.7695 23.2443H43.2137V8.80067C43.2137 7.79525 43.4099 6.94923 43.8023 6.2626C44.2028 5.5678 44.7627 5.04466 45.482 4.69317C46.2095 4.33351 47.0719 4.15368 48.0691 4.15368C48.3961 4.15368 48.7108 4.1782 49.0133 4.22725C49.3157 4.26812 49.61 4.32125 49.8961 4.38664L49.8593 7.04732C49.704 7.00645 49.5405 6.97784 49.3688 6.96149C49.1972 6.94514 48.9969 6.93697 48.768 6.93697C48.343 6.93697 47.9792 7.01053 47.6768 7.15767C47.3825 7.29663 47.1577 7.50507 47.0024 7.78299C46.8471 8.06091 46.7695 8.40013 46.7695 8.80067V23.2443ZM49.4179 9.97774V12.479H41.2397V9.97774H49.4179ZM50.7053 16.7459V16.4884C50.7053 15.5157 50.8443 14.6206 51.1222 13.8032C51.4001 12.9776 51.8047 12.2624 52.336 11.6575C52.8674 11.0526 53.5213 10.5826 54.2978 10.2475C55.0744 9.90417 55.9653 9.73251 56.9708 9.73251C57.9762 9.73251 58.8712 9.90417 59.656 10.2475C60.4407 10.5826 61.0987 11.0526 61.63 11.6575C62.1695 12.2624 62.5782 12.9776 62.8561 13.8032C63.134 14.6206 63.273 15.5157 63.273 16.4884V16.7459C63.273 17.7104 63.134 18.6055 62.8561 19.4311C62.5782 20.2485 62.1695 20.9637 61.63 21.5768C61.0987 22.1817 60.4448 22.6517 59.6682 22.9868C58.8917 23.322 58.0007 23.4895 56.9953 23.4895C55.9899 23.4895 55.0948 23.322 54.3101 22.9868C53.5335 22.6517 52.8755 22.1817 52.336 21.5768C51.8047 20.9637 51.4001 20.2485 51.1222 19.4311C50.8443 18.6055 50.7053 17.7104 50.7053 16.7459ZM54.2365 16.4884V16.7459C54.2365 17.3017 54.2856 17.8208 54.3836 18.3031C54.4817 18.7853 54.637 19.2104 54.8496 19.5782C55.0703 19.9379 55.3564 20.2199 55.7079 20.4243C56.0593 20.6286 56.4885 20.7308 56.9953 20.7308C57.4857 20.7308 57.9067 20.6286 58.2582 20.4243C58.6097 20.2199 58.8917 19.9379 59.1042 19.5782C59.3167 19.2104 59.472 18.7853 59.5701 18.3031C59.6764 17.8208 59.7295 17.3017 59.7295 16.7459V16.4884C59.7295 15.9489 59.6764 15.4421 59.5701 14.968C59.472 14.4858 59.3126 14.0607 59.0919 13.6929C58.8794 13.3169 58.5974 13.0226 58.2459 12.8101C57.8944 12.5975 57.4694 12.4913 56.9708 12.4913C56.4721 12.4913 56.0471 12.5975 55.6956 12.8101C55.3523 13.0226 55.0703 13.3169 54.8496 13.6929C54.637 14.0607 54.4817 14.4858 54.3836 14.968C54.2856 15.4421 54.2365 15.9489 54.2365 16.4884ZM64.8792 16.7459V16.4884C64.8792 15.5157 65.0182 14.6206 65.2961 13.8032C65.574 12.9776 65.9786 12.2624 66.5099 11.6575C67.0413 11.0526 67.6952 10.5826 68.4717 10.2475C69.2483 9.90417 70.1393 9.73251 71.1447 9.73251C72.1501 9.73251 73.0451 9.90417 73.8299 10.2475C74.6146 10.5826 75.2726 11.0526 75.8039 11.6575C76.3434 12.2624 76.7521 12.9776 77.03 13.8032C77.3079 14.6206 77.4469 15.5157 77.4469 16.4884V16.7459C77.4469 17.7104 77.3079 18.6055 77.03 19.4311C76.7521 20.2485 76.3434 20.9637 75.8039 21.5768C75.2726 22.1817 74.6187 22.6517 73.8421 22.9868C73.0656 23.322 72.1746 23.4895 71.1692 23.4895C70.1638 23.4895 69.2687 23.322 68.484 22.9868C67.7075 22.6517 67.0494 22.1817 66.5099 21.5768C65.9786 20.9637 65.574 20.2485 65.2961 19.4311C65.0182 18.6055 64.8792 17.7104 64.8792 16.7459ZM68.4104 16.4884V16.7459C68.4104 17.3017 68.4595 17.8208 68.5576 18.3031C68.6557 18.7853 68.811 19.2104 69.0235 19.5782C69.2442 19.9379 69.5303 20.2199 69.8818 20.4243C70.2333 20.6286 70.6624 20.7308 71.1692 20.7308C71.6596 20.7308 72.0806 20.6286 72.4321 20.4243C72.7836 20.2199 73.0656 19.9379 73.2781 19.5782C73.4906 19.2104 73.6459 18.7853 73.744 18.3031C73.8503 17.8208 73.9034 17.3017 73.9034 16.7459V16.4884C73.9034 15.9489 73.8503 15.4421 73.744 14.968C73.6459 14.4858 73.4866 14.0607 73.2659 13.6929C73.0533 13.3169 72.7713 13.0226 72.4198 12.8101C72.0683 12.5975 71.6433 12.4913 71.1447 12.4913C70.646 12.4913 70.221 12.5975 69.8695 12.8101C69.5262 13.0226 69.2442 13.3169 69.0235 13.6929C68.811 14.0607 68.6557 14.4858 68.5576 14.968C68.4595 15.4421 68.4104 15.9489 68.4104 16.4884ZM87.452 20.3507V4.41117H91.0078V23.2443H87.8076L87.452 20.3507ZM79.0654 16.7704V16.5129C79.0654 15.4994 79.1798 14.5798 79.4087 13.7542C79.6376 12.9204 79.9727 12.2052 80.4141 11.6085C80.8555 11.0118 81.3991 10.5499 82.0448 10.223C82.6906 9.896 83.4263 9.73251 84.2519 9.73251C85.0284 9.73251 85.7069 9.896 86.2872 10.223C86.8757 10.5499 87.3744 11.0159 87.7831 11.6207C88.2 12.2174 88.5351 12.9245 88.7885 13.7419C89.0419 14.5512 89.2258 15.438 89.3402 16.4026V16.9666C89.2258 17.8903 89.0419 18.7486 88.7885 19.5415C88.5351 20.3343 88.2 21.0291 87.7831 21.6258C87.3744 22.2144 86.8757 22.6721 86.2872 22.9991C85.6987 23.3261 85.0121 23.4895 84.2273 23.4895C83.4018 23.4895 82.6661 23.322 82.0203 22.9868C81.3827 22.6517 80.8433 22.1817 80.4019 21.5768C79.9686 20.9719 79.6376 20.2608 79.4087 19.4434C79.1798 18.6259 79.0654 17.735 79.0654 16.7704ZM82.5966 16.5129V16.7704C82.5966 17.3181 82.6375 17.829 82.7192 18.3031C82.8091 18.7772 82.9522 19.1981 83.1484 19.566C83.3527 19.9256 83.6143 20.2076 83.9331 20.412C84.26 20.6082 84.6565 20.7063 85.1224 20.7063C85.7273 20.7063 86.2259 20.5714 86.6183 20.3016C87.0106 20.0237 87.309 19.6436 87.5133 19.1614C87.7259 18.6791 87.8485 18.1232 87.8812 17.4938V15.8876C87.8566 15.3727 87.7831 14.9108 87.6605 14.5021C87.546 14.0852 87.3744 13.7297 87.1455 13.4354C86.9248 13.1411 86.6469 12.9122 86.3117 12.7488C85.9848 12.5853 85.5965 12.5035 85.1469 12.5035C84.6892 12.5035 84.2968 12.6098 83.9699 12.8223C83.6429 13.0267 83.3772 13.3087 83.1729 13.6683C82.9767 14.028 82.8296 14.4531 82.7315 14.9435C82.6416 15.4258 82.5966 15.9489 82.5966 16.5129ZM107.855 20.3507V4.41117H111.41V23.2443H108.21L107.855 20.3507ZM99.468 16.7704V16.5129C99.468 15.4994 99.5824 14.5798 99.8113 13.7542C100.04 12.9204 100.375 12.2052 100.817 11.6085C101.258 11.0118 101.802 10.5499 102.447 10.223C103.093 9.896 103.829 9.73251 104.654 9.73251C105.431 9.73251 106.109 9.896 106.69 10.223C107.278 10.5499 107.777 11.0159 108.186 11.6207C108.603 12.2174 108.938 12.9245 109.191 13.7419C109.444 14.5512 109.628 15.438 109.743 16.4026V16.9666C109.628 17.8903 109.444 18.7486 109.191 19.5415C108.938 20.3343 108.603 21.0291 108.186 21.6258C107.777 22.2144 107.278 22.6721 106.69 22.9991C106.101 23.3261 105.415 23.4895 104.63 23.4895C103.804 23.4895 103.069 23.322 102.423 22.9868C101.785 22.6517 101.246 22.1817 100.804 21.5768C100.371 20.9719 100.04 20.2608 99.8113 19.4434C99.5824 18.6259 99.468 17.735 99.468 16.7704ZM102.999 16.5129V16.7704C102.999 17.3181 103.04 17.829 103.122 18.3031C103.212 18.7772 103.355 19.1981 103.551 19.566C103.755 19.9256 104.017 20.2076 104.336 20.412C104.663 20.6082 105.059 20.7063 105.525 20.7063C106.13 20.7063 106.628 20.5714 107.021 20.3016C107.413 20.0237 107.712 19.6436 107.916 19.1614C108.128 18.6791 108.251 18.1232 108.284 17.4938V15.8876C108.259 15.3727 108.186 14.9108 108.063 14.5021C107.949 14.0852 107.777 13.7297 107.548 13.4354C107.327 13.1411 107.049 12.9122 106.714 12.7488C106.387 12.5853 105.999 12.5035 105.55 12.5035C105.092 12.5035 104.699 12.6098 104.372 12.8223C104.045 13.0267 103.78 13.3087 103.575 13.6683C103.379 14.028 103.232 14.4531 103.134 14.9435C103.044 15.4258 102.999 15.9489 102.999 16.5129ZM120.275 23.4895C119.245 23.4895 118.322 23.3261 117.504 22.9991C116.687 22.664 115.992 22.2021 115.42 21.6136C114.856 21.0251 114.423 20.3425 114.12 19.566C113.818 18.7813 113.666 17.9475 113.666 17.0647V16.5742C113.666 15.5688 113.809 14.6492 114.096 13.8155C114.382 12.9817 114.79 12.2583 115.322 11.6453C115.861 11.0322 116.515 10.5622 117.283 10.2352C118.052 9.90008 118.918 9.73251 119.883 9.73251C120.823 9.73251 121.657 9.88782 122.384 10.1984C123.112 10.5091 123.721 10.9505 124.211 11.5226C124.71 12.0948 125.086 12.7815 125.339 13.5825C125.592 14.3754 125.719 15.2582 125.719 16.2309V17.7023H115.175V15.3481H122.249V15.0784C122.249 14.5879 122.159 14.1506 121.979 13.7664C121.808 13.3741 121.546 13.0635 121.195 12.8346C120.843 12.6057 120.394 12.4913 119.846 12.4913C119.38 12.4913 118.98 12.5935 118.644 12.7978C118.309 13.0022 118.035 13.2883 117.823 13.6561C117.619 14.0239 117.463 14.4572 117.357 14.9558C117.259 15.4462 117.21 15.9857 117.21 16.5742V17.0647C117.21 17.596 117.283 18.0865 117.431 18.536C117.586 18.9856 117.803 19.3739 118.08 19.7008C118.367 20.0278 118.71 20.2812 119.11 20.461C119.519 20.6409 119.981 20.7308 120.496 20.7308C121.133 20.7308 121.726 20.6082 122.274 20.3629C122.83 20.1096 123.308 19.7295 123.708 19.2227L125.425 21.0864C125.147 21.4869 124.767 21.8711 124.285 22.2389C123.81 22.6067 123.238 22.9092 122.568 23.1462C121.898 23.3751 121.133 23.4895 120.275 23.4895ZM131.457 4.41117V23.2443H127.914V4.41117H131.457ZM138.103 9.97774V23.2443H134.559V9.97774H138.103ZM134.339 6.52009C134.339 6.00512 134.519 5.58006 134.878 5.24493C135.238 4.90979 135.72 4.74222 136.325 4.74222C136.922 4.74222 137.4 4.90979 137.76 5.24493C138.127 5.58006 138.311 6.00512 138.311 6.52009C138.311 7.03506 138.127 7.46011 137.76 7.79525C137.4 8.13039 136.922 8.29796 136.325 8.29796C135.72 8.29796 135.238 8.13039 134.878 7.79525C134.519 7.46011 134.339 7.03506 134.339 6.52009ZM145.533 20.6695L148.476 9.97774H152.166L147.691 23.2443H145.46L145.533 20.6695ZM143.51 9.97774L146.465 20.6817L146.526 23.2443H144.283L139.807 9.97774H143.51ZM159.683 23.4895C158.653 23.4895 157.729 23.3261 156.912 22.9991C156.094 22.664 155.399 22.2021 154.827 21.6136C154.263 21.0251 153.83 20.3425 153.527 19.566C153.225 18.7813 153.074 17.9475 153.074 17.0647V16.5742C153.074 15.5688 153.217 14.6492 153.503 13.8155C153.789 12.9817 154.198 12.2583 154.729 11.6453C155.269 11.0322 155.922 10.5622 156.691 10.2352C157.459 9.90008 158.326 9.73251 159.29 9.73251C160.23 9.73251 161.064 9.88782 161.791 10.1984C162.519 10.5091 163.128 10.9505 163.618 11.5226C164.117 12.0948 164.493 12.7815 164.746 13.5825C165 14.3754 165.127 15.2582 165.127 16.2309V17.7023H154.582V15.3481H161.657V15.0784C161.657 14.5879 161.567 14.1506 161.387 13.7664C161.215 13.3741 160.954 13.0635 160.602 12.8346C160.251 12.6057 159.801 12.4913 159.253 12.4913C158.788 12.4913 158.387 12.5935 158.052 12.7978C157.717 13.0022 157.443 13.2883 157.23 13.6561C157.026 14.0239 156.871 14.4572 156.764 14.9558C156.666 15.4462 156.617 15.9857 156.617 16.5742V17.0647C156.617 17.596 156.691 18.0865 156.838 18.536C156.993 18.9856 157.21 19.3739 157.488 19.7008C157.774 20.0278 158.117 20.2812 158.518 20.461C158.926 20.6409 159.388 20.7308 159.903 20.7308C160.541 20.7308 161.133 20.6082 161.681 20.3629C162.237 20.1096 162.715 19.7295 163.116 19.2227L164.832 21.0864C164.554 21.4869 164.174 21.8711 163.692 22.2389C163.218 22.6067 162.646 22.9092 161.975 23.1462C161.305 23.3751 160.541 23.4895 159.683 23.4895ZM170.669 12.8714V23.2443H167.137V9.97774H170.46L170.669 12.8714ZM174.666 9.89191L174.604 13.1656C174.433 13.1411 174.224 13.1207 173.979 13.1043C173.742 13.0798 173.525 13.0676 173.329 13.0676C172.831 13.0676 172.397 13.1329 172.03 13.2637C171.67 13.3863 171.367 13.5703 171.122 13.8155C170.885 14.0607 170.705 14.3591 170.583 14.7105C170.468 15.062 170.403 15.4626 170.387 15.9121L169.675 15.6914C169.675 14.8332 169.761 14.0444 169.933 13.325C170.105 12.5975 170.354 11.964 170.681 11.4246C171.016 10.8851 171.425 10.4682 171.907 10.1739C172.389 9.87965 172.941 9.73251 173.562 9.73251C173.758 9.73251 173.959 9.74886 174.163 9.78156C174.367 9.80608 174.535 9.84286 174.666 9.89191ZM180.49 21.7485L184.009 9.97774H187.797L182.464 25.2429C182.349 25.578 182.194 25.9377 181.998 26.3219C181.81 26.7061 181.552 27.0698 181.225 27.4131C180.907 27.7646 180.502 28.0507 180.012 28.2714C179.529 28.4921 178.937 28.6025 178.234 28.6025C177.899 28.6025 177.625 28.582 177.412 28.5411C177.2 28.5003 176.946 28.4431 176.652 28.3695V25.7824C176.742 25.7824 176.836 25.7824 176.934 25.7824C177.032 25.7906 177.126 25.7946 177.216 25.7946C177.682 25.7946 178.062 25.7415 178.356 25.6353C178.651 25.529 178.888 25.3655 179.067 25.1448C179.247 24.9323 179.39 24.6544 179.497 24.311L180.49 21.7485ZM179.018 9.97774L181.9 19.5905L182.403 23.3302L179.999 23.5876L175.23 9.97774H179.018Z" fill="white" fill-opacity="0.3"/>
<path d="M15.0635 0.550964L27.7096 7.85214V22.4545L15.0635 29.7557L2.41753 22.4545V7.85214L15.0635 0.550964Z" fill="white" fill-opacity="0.3"/>
</svg>
